<mxfile host="Electron" agent="Mozilla/5.0 (Windows NT 10.0; Win64; x64) AppleWebKit/537.36 (KHTML, like Gecko) draw.io/27.0.5 Chrome/134.0.6998.205 Electron/35.3.0 Safari/537.36" version="27.0.5">
  <diagram name="Page-1" id="xIXtGIpUdvKKng5NYEfO">
    <mxGraphModel dx="1489" dy="894" grid="1" gridSize="10" guides="1" tooltips="1" connect="1" arrows="1" fold="1" page="1" pageScale="1" pageWidth="1169" pageHeight="827" background="#ffffff" math="0" shadow="0">
      <root>
        <mxCell id="0" />
        <mxCell id="1" parent="0" />
        <mxCell id="x3FrayPWxcoxJuQc1qyT-40" value="&lt;font style=&quot;color: rgb(0, 0, 0); font-size: 20px;&quot;&gt;Gyártócég&lt;/font&gt;" style="rounded=0;whiteSpace=wrap;html=1;strokeColor=#000000;fillColor=#FFFFFF;" parent="1" vertex="1">
          <mxGeometry x="470" y="310" width="130" height="70" as="geometry" />
        </mxCell>
        <mxCell id="x3FrayPWxcoxJuQc1qyT-41" value="&lt;font style=&quot;font-size: 16px; color: rgb(0, 0, 0);&quot;&gt;Gyártás&lt;/font&gt;" style="rounded=0;whiteSpace=wrap;html=1;strokeColor=#000000;fillColor=#FFFFFF;" parent="1" vertex="1">
          <mxGeometry x="100" y="130" width="105" height="46" as="geometry" />
        </mxCell>
        <mxCell id="x3FrayPWxcoxJuQc1qyT-42" value="&lt;font style=&quot;color: rgb(0, 0, 0);&quot;&gt;Minőségellenőrzés&lt;/font&gt;" style="rounded=0;whiteSpace=wrap;html=1;strokeColor=#000000;fillColor=#FFFFFF;" parent="1" vertex="1">
          <mxGeometry x="870" y="134" width="105" height="46" as="geometry" />
        </mxCell>
        <mxCell id="x3FrayPWxcoxJuQc1qyT-43" value="&lt;font style=&quot;color: rgb(0, 0, 0);&quot;&gt;Minőségbiztosítás&lt;/font&gt;" style="rounded=0;whiteSpace=wrap;html=1;strokeColor=#000000;fillColor=#FFFFFF;" parent="1" vertex="1">
          <mxGeometry x="860" y="490" width="105" height="46" as="geometry" />
        </mxCell>
        <mxCell id="x3FrayPWxcoxJuQc1qyT-45" value="&lt;font style=&quot;font-size: 16px; color: rgb(0, 0, 0);&quot;&gt;Vevő&lt;/font&gt;" style="rounded=0;whiteSpace=wrap;html=1;strokeColor=#000000;fillColor=#FFFFFF;" parent="1" vertex="1">
          <mxGeometry x="482.5" y="580" width="105" height="50" as="geometry" />
        </mxCell>
        <mxCell id="x3FrayPWxcoxJuQc1qyT-46" value="&lt;font style=&quot;color: rgb(0, 0, 0);&quot;&gt;Gyártás&lt;/font&gt;" style="rhombus;whiteSpace=wrap;html=1;strokeColor=#000000;fillColor=#FFFFFF;rotation=-45;" parent="1" vertex="1">
          <mxGeometry x="300" y="192.93" width="60" height="80" as="geometry" />
        </mxCell>
        <mxCell id="x3FrayPWxcoxJuQc1qyT-47" value="&lt;font style=&quot;color: rgb(0, 0, 0); font-size: 10px;&quot;&gt;Ellenőrzés&lt;/font&gt;" style="rhombus;whiteSpace=wrap;html=1;strokeColor=#000000;fillColor=#FFFFFF;rotation=45;" parent="1" vertex="1">
          <mxGeometry x="710" y="192.93" width="60" height="80" as="geometry" />
        </mxCell>
        <mxCell id="x3FrayPWxcoxJuQc1qyT-48" value="&lt;font style=&quot;font-size: 8px; color: rgb(0, 0, 0);&quot;&gt;Felszabadítás&lt;/font&gt;" style="rhombus;whiteSpace=wrap;html=1;strokeColor=#000000;fillColor=#FFFFFF;rotation=135;" parent="1" vertex="1">
          <mxGeometry x="680" y="380" width="60" height="80" as="geometry" />
        </mxCell>
        <mxCell id="x3FrayPWxcoxJuQc1qyT-51" value="&lt;font style=&quot;color: rgb(0, 0, 0);&quot;&gt;Rendelés&lt;/font&gt;" style="rhombus;whiteSpace=wrap;html=1;strokeColor=#000000;fillColor=#FFFFFF;rotation=0;" parent="1" vertex="1">
          <mxGeometry x="505" y="440" width="60" height="80" as="geometry" />
        </mxCell>
        <mxCell id="x3FrayPWxcoxJuQc1qyT-52" value="" style="endArrow=none;html=1;rounded=0;strokeColor=#000000;entryX=0;entryY=1;entryDx=0;entryDy=0;exitX=0.5;exitY=0;exitDx=0;exitDy=0;" parent="1" source="x3FrayPWxcoxJuQc1qyT-47" target="x3FrayPWxcoxJuQc1qyT-42" edge="1">
          <mxGeometry width="50" height="50" relative="1" as="geometry">
            <mxPoint x="850" y="272.93" as="sourcePoint" />
            <mxPoint x="900" y="222.93" as="targetPoint" />
          </mxGeometry>
        </mxCell>
        <mxCell id="x3FrayPWxcoxJuQc1qyT-53" value="" style="endArrow=none;html=1;rounded=0;strokeColor=#000000;entryX=0.5;entryY=1;entryDx=0;entryDy=0;exitX=1;exitY=0;exitDx=0;exitDy=0;" parent="1" source="x3FrayPWxcoxJuQc1qyT-40" target="x3FrayPWxcoxJuQc1qyT-47" edge="1">
          <mxGeometry width="50" height="50" relative="1" as="geometry">
            <mxPoint x="620" y="334" as="sourcePoint" />
            <mxPoint x="670" y="284" as="targetPoint" />
          </mxGeometry>
        </mxCell>
        <mxCell id="x3FrayPWxcoxJuQc1qyT-54" value="" style="endArrow=none;html=1;rounded=0;strokeColor=#000000;entryX=1;entryY=1;entryDx=0;entryDy=0;exitX=0.5;exitY=1;exitDx=0;exitDy=0;" parent="1" source="x3FrayPWxcoxJuQc1qyT-48" target="x3FrayPWxcoxJuQc1qyT-40" edge="1">
          <mxGeometry width="50" height="50" relative="1" as="geometry">
            <mxPoint x="587.5" y="510" as="sourcePoint" />
            <mxPoint x="637.5" y="460" as="targetPoint" />
          </mxGeometry>
        </mxCell>
        <mxCell id="x3FrayPWxcoxJuQc1qyT-55" value="" style="endArrow=none;html=1;rounded=0;strokeColor=#000000;entryX=0.5;entryY=0;entryDx=0;entryDy=0;exitX=0;exitY=0;exitDx=0;exitDy=0;" parent="1" source="x3FrayPWxcoxJuQc1qyT-43" target="x3FrayPWxcoxJuQc1qyT-48" edge="1">
          <mxGeometry width="50" height="50" relative="1" as="geometry">
            <mxPoint x="720" y="540" as="sourcePoint" />
            <mxPoint x="770" y="490" as="targetPoint" />
          </mxGeometry>
        </mxCell>
        <mxCell id="x3FrayPWxcoxJuQc1qyT-56" value="" style="endArrow=none;html=1;rounded=0;strokeColor=#000000;entryX=1;entryY=1;entryDx=0;entryDy=0;exitX=0.5;exitY=0;exitDx=0;exitDy=0;" parent="1" source="x3FrayPWxcoxJuQc1qyT-46" target="x3FrayPWxcoxJuQc1qyT-41" edge="1">
          <mxGeometry width="50" height="50" relative="1" as="geometry">
            <mxPoint x="330" y="340" as="sourcePoint" />
            <mxPoint x="380" y="290" as="targetPoint" />
          </mxGeometry>
        </mxCell>
        <mxCell id="x3FrayPWxcoxJuQc1qyT-57" value="" style="endArrow=none;html=1;rounded=0;strokeColor=#000000;entryX=0.5;entryY=1;entryDx=0;entryDy=0;exitX=0;exitY=0;exitDx=0;exitDy=0;" parent="1" source="x3FrayPWxcoxJuQc1qyT-40" target="x3FrayPWxcoxJuQc1qyT-46" edge="1">
          <mxGeometry width="50" height="50" relative="1" as="geometry">
            <mxPoint x="270" y="414" as="sourcePoint" />
            <mxPoint x="320" y="364" as="targetPoint" />
          </mxGeometry>
        </mxCell>
        <mxCell id="x3FrayPWxcoxJuQc1qyT-62" value="" style="endArrow=none;html=1;rounded=0;strokeColor=#000000;entryX=0;entryY=0.5;entryDx=0;entryDy=0;exitX=0.5;exitY=0;exitDx=0;exitDy=0;" parent="1" source="x3FrayPWxcoxJuQc1qyT-70" target="x3FrayPWxcoxJuQc1qyT-40" edge="1">
          <mxGeometry width="50" height="50" relative="1" as="geometry">
            <mxPoint x="30" y="230" as="sourcePoint" />
            <mxPoint x="80" y="180" as="targetPoint" />
          </mxGeometry>
        </mxCell>
        <mxCell id="x3FrayPWxcoxJuQc1qyT-63" value="" style="endArrow=none;html=1;rounded=0;strokeColor=#000000;exitX=1;exitY=0.5;exitDx=0;exitDy=0;entryX=0;entryY=0;entryDx=0;entryDy=0;" parent="1" source="x3FrayPWxcoxJuQc1qyT-71" target="x3FrayPWxcoxJuQc1qyT-41" edge="1">
          <mxGeometry width="50" height="50" relative="1" as="geometry">
            <mxPoint x="280" y="100" as="sourcePoint" />
            <mxPoint x="330" y="50" as="targetPoint" />
          </mxGeometry>
        </mxCell>
        <mxCell id="x3FrayPWxcoxJuQc1qyT-64" value="" style="endArrow=none;html=1;rounded=0;strokeColor=#000000;entryX=0.5;entryY=1;entryDx=0;entryDy=0;exitX=0.5;exitY=0;exitDx=0;exitDy=0;" parent="1" source="x3FrayPWxcoxJuQc1qyT-41" target="x3FrayPWxcoxJuQc1qyT-72" edge="1">
          <mxGeometry width="50" height="50" relative="1" as="geometry">
            <mxPoint x="240" y="134" as="sourcePoint" />
            <mxPoint x="290" y="84" as="targetPoint" />
          </mxGeometry>
        </mxCell>
        <mxCell id="x3FrayPWxcoxJuQc1qyT-65" value="" style="endArrow=none;html=1;rounded=0;strokeColor=#000000;exitX=1;exitY=0;exitDx=0;exitDy=0;entryX=0.5;entryY=1;entryDx=0;entryDy=0;" parent="1" source="x3FrayPWxcoxJuQc1qyT-41" target="x3FrayPWxcoxJuQc1qyT-73" edge="1">
          <mxGeometry width="50" height="50" relative="1" as="geometry">
            <mxPoint x="240" y="176" as="sourcePoint" />
            <mxPoint x="290" y="126" as="targetPoint" />
          </mxGeometry>
        </mxCell>
        <mxCell id="x3FrayPWxcoxJuQc1qyT-66" value="" style="endArrow=none;html=1;rounded=0;strokeColor=#000000;entryX=0.5;entryY=1;entryDx=0;entryDy=0;exitX=1;exitY=0.5;exitDx=0;exitDy=0;" parent="1" source="x3FrayPWxcoxJuQc1qyT-73" target="x3FrayPWxcoxJuQc1qyT-74" edge="1">
          <mxGeometry width="50" height="50" relative="1" as="geometry">
            <mxPoint x="340" y="140" as="sourcePoint" />
            <mxPoint x="390" y="90" as="targetPoint" />
          </mxGeometry>
        </mxCell>
        <mxCell id="x3FrayPWxcoxJuQc1qyT-67" value="" style="endArrow=none;html=1;rounded=0;strokeColor=#000000;entryX=0.5;entryY=1;entryDx=0;entryDy=0;exitX=0.5;exitY=0;exitDx=0;exitDy=0;" parent="1" source="x3FrayPWxcoxJuQc1qyT-73" target="x3FrayPWxcoxJuQc1qyT-75" edge="1">
          <mxGeometry width="50" height="50" relative="1" as="geometry">
            <mxPoint x="410" y="140" as="sourcePoint" />
            <mxPoint x="460" y="90" as="targetPoint" />
          </mxGeometry>
        </mxCell>
        <mxCell id="x3FrayPWxcoxJuQc1qyT-68" value="" style="endArrow=none;html=1;rounded=0;strokeColor=#000000;entryX=0;entryY=0.5;entryDx=0;entryDy=0;exitX=1;exitY=0.5;exitDx=0;exitDy=0;" parent="1" source="x3FrayPWxcoxJuQc1qyT-41" target="x3FrayPWxcoxJuQc1qyT-76" edge="1">
          <mxGeometry width="50" height="50" relative="1" as="geometry">
            <mxPoint x="237.5" y="180" as="sourcePoint" />
            <mxPoint x="287.5" y="130" as="targetPoint" />
          </mxGeometry>
        </mxCell>
        <mxCell id="x3FrayPWxcoxJuQc1qyT-70" value="&lt;font style=&quot;color: rgb(0, 0, 0);&quot;&gt;&lt;u&gt;GyártóID&lt;/u&gt;&lt;/font&gt;" style="ellipse;whiteSpace=wrap;html=1;strokeColor=#000000;fillColor=#FFFFFF;" parent="1" vertex="1">
          <mxGeometry x="110" y="340" width="62.5" height="40" as="geometry" />
        </mxCell>
        <mxCell id="x3FrayPWxcoxJuQc1qyT-71" value="&lt;font style=&quot;color: rgb(0, 0, 0);&quot;&gt;Név&lt;/font&gt;" style="ellipse;whiteSpace=wrap;html=1;strokeColor=#000000;fillColor=#FFFFFF;" parent="1" vertex="1">
          <mxGeometry x="20" y="90" width="62.5" height="40" as="geometry" />
        </mxCell>
        <mxCell id="x3FrayPWxcoxJuQc1qyT-72" value="&lt;font style=&quot;color: rgb(0, 0, 0);&quot;&gt;Cím&lt;/font&gt;" style="ellipse;whiteSpace=wrap;html=1;strokeColor=#000000;fillColor=#FFFFFF;" parent="1" vertex="1">
          <mxGeometry x="121.25" y="60" width="62.5" height="40" as="geometry" />
        </mxCell>
        <mxCell id="x3FrayPWxcoxJuQc1qyT-73" value="&lt;font style=&quot;color: rgb(0, 0, 0);&quot;&gt;Termék&lt;/font&gt;" style="ellipse;whiteSpace=wrap;html=1;strokeColor=#000000;fillColor=#FFFFFF;" parent="1" vertex="1">
          <mxGeometry x="237.5" y="70" width="62.5" height="40" as="geometry" />
        </mxCell>
        <mxCell id="x3FrayPWxcoxJuQc1qyT-74" value="&lt;font style=&quot;color: rgb(0, 0, 0);&quot;&gt;ID&lt;/font&gt;" style="ellipse;whiteSpace=wrap;html=1;strokeColor=#000000;fillColor=#FFFFFF;" parent="1" vertex="1">
          <mxGeometry x="340" y="10" width="62.5" height="40" as="geometry" />
        </mxCell>
        <mxCell id="x3FrayPWxcoxJuQc1qyT-75" value="&lt;font style=&quot;color: rgb(0, 0, 0);&quot;&gt;Név&lt;/font&gt;" style="ellipse;whiteSpace=wrap;html=1;strokeColor=#000000;fillColor=#FFFFFF;" parent="1" vertex="1">
          <mxGeometry x="247.5" y="10" width="62.5" height="40" as="geometry" />
        </mxCell>
        <mxCell id="x3FrayPWxcoxJuQc1qyT-76" value="&lt;font style=&quot;color: rgb(0, 0, 0);&quot;&gt;Dolgozó&lt;/font&gt;" style="ellipse;whiteSpace=wrap;html=1;strokeColor=#000000;fillColor=#FFFFFF;" parent="1" vertex="1">
          <mxGeometry x="340" y="130" width="62.5" height="40" as="geometry" />
        </mxCell>
        <mxCell id="x3FrayPWxcoxJuQc1qyT-78" value="" style="endArrow=none;html=1;rounded=0;strokeColor=#000000;entryX=0;entryY=0.5;entryDx=0;entryDy=0;exitX=1;exitY=0.5;exitDx=0;exitDy=0;" parent="1" source="x3FrayPWxcoxJuQc1qyT-76" target="x3FrayPWxcoxJuQc1qyT-79" edge="1">
          <mxGeometry width="50" height="50" relative="1" as="geometry">
            <mxPoint x="340" y="140" as="sourcePoint" />
            <mxPoint x="390" y="90" as="targetPoint" />
          </mxGeometry>
        </mxCell>
        <mxCell id="x3FrayPWxcoxJuQc1qyT-79" value="&lt;font style=&quot;color: rgb(0, 0, 0);&quot;&gt;ID&lt;/font&gt;" style="ellipse;whiteSpace=wrap;html=1;strokeColor=#000000;fillColor=#FFFFFF;" parent="1" vertex="1">
          <mxGeometry x="420" y="70" width="62.5" height="40" as="geometry" />
        </mxCell>
        <mxCell id="x3FrayPWxcoxJuQc1qyT-80" value="&lt;font style=&quot;color: rgb(0, 0, 0);&quot;&gt;Név&lt;/font&gt;" style="ellipse;whiteSpace=wrap;html=1;strokeColor=#000000;fillColor=#FFFFFF;" parent="1" vertex="1">
          <mxGeometry x="420" y="130" width="62.5" height="40" as="geometry" />
        </mxCell>
        <mxCell id="x3FrayPWxcoxJuQc1qyT-81" value="&lt;font style=&quot;color: rgb(0, 0, 0);&quot;&gt;Cim&lt;/font&gt;" style="ellipse;whiteSpace=wrap;html=1;strokeColor=#000000;fillColor=#FFFFFF;" parent="1" vertex="1">
          <mxGeometry x="420" y="192.93" width="62.5" height="40" as="geometry" />
        </mxCell>
        <mxCell id="x3FrayPWxcoxJuQc1qyT-82" value="" style="endArrow=none;html=1;rounded=0;strokeColor=#000000;entryX=0;entryY=0.5;entryDx=0;entryDy=0;exitX=1;exitY=0.5;exitDx=0;exitDy=0;" parent="1" source="x3FrayPWxcoxJuQc1qyT-76" target="x3FrayPWxcoxJuQc1qyT-80" edge="1">
          <mxGeometry width="50" height="50" relative="1" as="geometry">
            <mxPoint x="490" y="160" as="sourcePoint" />
            <mxPoint x="540" y="110" as="targetPoint" />
          </mxGeometry>
        </mxCell>
        <mxCell id="x3FrayPWxcoxJuQc1qyT-83" value="" style="endArrow=none;html=1;rounded=0;strokeColor=#000000;entryX=1;entryY=0.5;entryDx=0;entryDy=0;exitX=0;exitY=0.5;exitDx=0;exitDy=0;" parent="1" source="x3FrayPWxcoxJuQc1qyT-81" target="x3FrayPWxcoxJuQc1qyT-76" edge="1">
          <mxGeometry width="50" height="50" relative="1" as="geometry">
            <mxPoint x="535" y="230" as="sourcePoint" />
            <mxPoint x="585" y="180" as="targetPoint" />
          </mxGeometry>
        </mxCell>
        <mxCell id="x3FrayPWxcoxJuQc1qyT-86" value="" style="endArrow=none;html=1;rounded=0;strokeColor=#000000;entryX=0.5;entryY=1;entryDx=0;entryDy=0;exitX=0.5;exitY=0;exitDx=0;exitDy=0;" parent="1" source="x3FrayPWxcoxJuQc1qyT-95" target="x3FrayPWxcoxJuQc1qyT-45" edge="1">
          <mxGeometry width="50" height="50" relative="1" as="geometry">
            <mxPoint x="390" y="678" as="sourcePoint" />
            <mxPoint x="440" y="628" as="targetPoint" />
          </mxGeometry>
        </mxCell>
        <mxCell id="x3FrayPWxcoxJuQc1qyT-87" value="" style="endArrow=none;html=1;rounded=0;strokeColor=#000000;entryX=0.5;entryY=1;entryDx=0;entryDy=0;exitX=0.5;exitY=0;exitDx=0;exitDy=0;" parent="1" source="x3FrayPWxcoxJuQc1qyT-97" target="x3FrayPWxcoxJuQc1qyT-45" edge="1">
          <mxGeometry width="50" height="50" relative="1" as="geometry">
            <mxPoint x="660" y="650" as="sourcePoint" />
            <mxPoint x="710" y="600" as="targetPoint" />
          </mxGeometry>
        </mxCell>
        <mxCell id="x3FrayPWxcoxJuQc1qyT-88" value="" style="endArrow=none;html=1;rounded=0;strokeColor=#000000;entryX=0.5;entryY=1;entryDx=0;entryDy=0;exitX=0.5;exitY=0;exitDx=0;exitDy=0;" parent="1" source="x3FrayPWxcoxJuQc1qyT-96" target="x3FrayPWxcoxJuQc1qyT-45" edge="1">
          <mxGeometry width="50" height="50" relative="1" as="geometry">
            <mxPoint x="440" y="760" as="sourcePoint" />
            <mxPoint x="490" y="710" as="targetPoint" />
          </mxGeometry>
        </mxCell>
        <mxCell id="x3FrayPWxcoxJuQc1qyT-89" value="" style="endArrow=none;html=1;rounded=0;strokeColor=#000000;entryX=0.5;entryY=1;entryDx=0;entryDy=0;exitX=0.5;exitY=0;exitDx=0;exitDy=0;" parent="1" source="x3FrayPWxcoxJuQc1qyT-42" target="x3FrayPWxcoxJuQc1qyT-99" edge="1">
          <mxGeometry width="50" height="50" relative="1" as="geometry">
            <mxPoint x="880" y="137" as="sourcePoint" />
            <mxPoint x="930" y="87" as="targetPoint" />
          </mxGeometry>
        </mxCell>
        <mxCell id="x3FrayPWxcoxJuQc1qyT-90" value="" style="endArrow=none;html=1;rounded=0;strokeColor=#000000;entryX=0.5;entryY=1;entryDx=0;entryDy=0;exitX=1;exitY=0;exitDx=0;exitDy=0;" parent="1" source="x3FrayPWxcoxJuQc1qyT-42" target="x3FrayPWxcoxJuQc1qyT-100" edge="1">
          <mxGeometry width="50" height="50" relative="1" as="geometry">
            <mxPoint x="965" y="232.93" as="sourcePoint" />
            <mxPoint x="1015" y="182.93" as="targetPoint" />
          </mxGeometry>
        </mxCell>
        <mxCell id="x3FrayPWxcoxJuQc1qyT-91" value="" style="endArrow=none;html=1;rounded=0;strokeColor=#000000;entryX=0;entryY=0.5;entryDx=0;entryDy=0;exitX=1;exitY=0.5;exitDx=0;exitDy=0;" parent="1" source="x3FrayPWxcoxJuQc1qyT-42" target="x3FrayPWxcoxJuQc1qyT-101" edge="1">
          <mxGeometry width="50" height="50" relative="1" as="geometry">
            <mxPoint x="975" y="220" as="sourcePoint" />
            <mxPoint x="1025" y="170" as="targetPoint" />
          </mxGeometry>
        </mxCell>
        <mxCell id="x3FrayPWxcoxJuQc1qyT-92" value="" style="endArrow=none;html=1;rounded=0;strokeColor=#000000;entryX=0.5;entryY=1;entryDx=0;entryDy=0;exitX=0;exitY=0;exitDx=0;exitDy=0;" parent="1" source="x3FrayPWxcoxJuQc1qyT-42" target="x3FrayPWxcoxJuQc1qyT-98" edge="1">
          <mxGeometry width="50" height="50" relative="1" as="geometry">
            <mxPoint x="770" y="160" as="sourcePoint" />
            <mxPoint x="820" y="110" as="targetPoint" />
          </mxGeometry>
        </mxCell>
        <mxCell id="x3FrayPWxcoxJuQc1qyT-95" value="&lt;font style=&quot;color: rgb(0, 0, 0);&quot;&gt;Név&lt;/font&gt;" style="ellipse;whiteSpace=wrap;html=1;strokeColor=#000000;fillColor=#FFFFFF;" parent="1" vertex="1">
          <mxGeometry x="402.5" y="670" width="62.5" height="40" as="geometry" />
        </mxCell>
        <mxCell id="x3FrayPWxcoxJuQc1qyT-96" value="&lt;font style=&quot;color: rgb(0, 0, 0);&quot;&gt;Cím&lt;/font&gt;" style="ellipse;whiteSpace=wrap;html=1;strokeColor=#000000;fillColor=#FFFFFF;" parent="1" vertex="1">
          <mxGeometry x="503.75" y="670" width="62.5" height="40" as="geometry" />
        </mxCell>
        <mxCell id="x3FrayPWxcoxJuQc1qyT-97" value="&lt;font style=&quot;color: rgb(0, 0, 0); font-size: 11px;&quot;&gt;&lt;u style=&quot;&quot;&gt;Rendelésszám&lt;/u&gt;&lt;/font&gt;" style="ellipse;whiteSpace=wrap;html=1;strokeColor=#000000;fillColor=#FFFFFF;" parent="1" vertex="1">
          <mxGeometry x="610" y="660" width="90" height="60" as="geometry" />
        </mxCell>
        <mxCell id="x3FrayPWxcoxJuQc1qyT-98" value="&lt;font style=&quot;color: rgb(0, 0, 0);&quot;&gt;Cím&lt;/font&gt;" style="ellipse;whiteSpace=wrap;html=1;strokeColor=#000000;fillColor=#FFFFFF;" parent="1" vertex="1">
          <mxGeometry x="770" y="40" width="62.5" height="40" as="geometry" />
        </mxCell>
        <mxCell id="x3FrayPWxcoxJuQc1qyT-99" value="&lt;font style=&quot;color: rgb(0, 0, 0);&quot;&gt;Dolgozó neve&lt;/font&gt;" style="ellipse;whiteSpace=wrap;html=1;strokeColor=#000000;fillColor=#FFFFFF;" parent="1" vertex="1">
          <mxGeometry x="891.25" y="40" width="62.5" height="40" as="geometry" />
        </mxCell>
        <mxCell id="x3FrayPWxcoxJuQc1qyT-100" value="&lt;font style=&quot;color: rgb(0, 0, 0);&quot;&gt;Dátum&lt;/font&gt;" style="ellipse;whiteSpace=wrap;html=1;strokeColor=#000000;fillColor=#FFFFFF;" parent="1" vertex="1">
          <mxGeometry x="1010" y="40" width="62.5" height="40" as="geometry" />
        </mxCell>
        <mxCell id="x3FrayPWxcoxJuQc1qyT-101" value="&lt;font style=&quot;color: rgb(0, 0, 0);&quot;&gt;&lt;u&gt;MEO_ID&lt;/u&gt;&lt;/font&gt;" style="ellipse;whiteSpace=wrap;html=1;strokeColor=#000000;fillColor=#FFFFFF;" parent="1" vertex="1">
          <mxGeometry x="1070" y="137" width="62.5" height="40" as="geometry" />
        </mxCell>
        <mxCell id="x3FrayPWxcoxJuQc1qyT-102" value="" style="endArrow=none;html=1;rounded=0;strokeColor=#000000;entryX=0.5;entryY=1;entryDx=0;entryDy=0;exitX=0.5;exitY=0;exitDx=0;exitDy=0;" parent="1" source="x3FrayPWxcoxJuQc1qyT-43" target="x3FrayPWxcoxJuQc1qyT-111" edge="1">
          <mxGeometry width="50" height="50" relative="1" as="geometry">
            <mxPoint x="760" y="500" as="sourcePoint" />
            <mxPoint x="810" y="450" as="targetPoint" />
          </mxGeometry>
        </mxCell>
        <mxCell id="x3FrayPWxcoxJuQc1qyT-103" value="" style="endArrow=none;html=1;rounded=0;strokeColor=#000000;entryX=0.5;entryY=1;entryDx=0;entryDy=0;exitX=1;exitY=0;exitDx=0;exitDy=0;" parent="1" source="x3FrayPWxcoxJuQc1qyT-43" target="x3FrayPWxcoxJuQc1qyT-112" edge="1">
          <mxGeometry width="50" height="50" relative="1" as="geometry">
            <mxPoint x="950" y="628" as="sourcePoint" />
            <mxPoint x="1000" y="578" as="targetPoint" />
          </mxGeometry>
        </mxCell>
        <mxCell id="x3FrayPWxcoxJuQc1qyT-104" value="" style="endArrow=none;html=1;rounded=0;strokeColor=#000000;entryX=0;entryY=0.5;entryDx=0;entryDy=0;exitX=1;exitY=0.5;exitDx=0;exitDy=0;" parent="1" source="x3FrayPWxcoxJuQc1qyT-43" target="x3FrayPWxcoxJuQc1qyT-113" edge="1">
          <mxGeometry width="50" height="50" relative="1" as="geometry">
            <mxPoint x="965" y="610" as="sourcePoint" />
            <mxPoint x="1015" y="560" as="targetPoint" />
          </mxGeometry>
        </mxCell>
        <mxCell id="x3FrayPWxcoxJuQc1qyT-105" value="" style="endArrow=none;html=1;rounded=0;strokeColor=#000000;entryX=0;entryY=0.5;entryDx=0;entryDy=0;exitX=1;exitY=1;exitDx=0;exitDy=0;" parent="1" source="x3FrayPWxcoxJuQc1qyT-43" target="x3FrayPWxcoxJuQc1qyT-114" edge="1">
          <mxGeometry width="50" height="50" relative="1" as="geometry">
            <mxPoint x="940" y="645" as="sourcePoint" />
            <mxPoint x="990" y="595" as="targetPoint" />
          </mxGeometry>
        </mxCell>
        <mxCell id="x3FrayPWxcoxJuQc1qyT-106" value="" style="endArrow=none;html=1;rounded=0;strokeColor=#000000;entryX=0.5;entryY=1;entryDx=0;entryDy=0;exitX=0.5;exitY=0;exitDx=0;exitDy=0;" parent="1" source="x3FrayPWxcoxJuQc1qyT-51" target="x3FrayPWxcoxJuQc1qyT-40" edge="1">
          <mxGeometry width="50" height="50" relative="1" as="geometry">
            <mxPoint x="440" y="464" as="sourcePoint" />
            <mxPoint x="490" y="414" as="targetPoint" />
          </mxGeometry>
        </mxCell>
        <mxCell id="x3FrayPWxcoxJuQc1qyT-107" value="" style="endArrow=none;html=1;rounded=0;strokeColor=#000000;entryX=0.5;entryY=1;entryDx=0;entryDy=0;exitX=0.5;exitY=0;exitDx=0;exitDy=0;" parent="1" source="x3FrayPWxcoxJuQc1qyT-45" target="x3FrayPWxcoxJuQc1qyT-51" edge="1">
          <mxGeometry width="50" height="50" relative="1" as="geometry">
            <mxPoint x="400" y="586" as="sourcePoint" />
            <mxPoint x="450" y="536" as="targetPoint" />
          </mxGeometry>
        </mxCell>
        <mxCell id="x3FrayPWxcoxJuQc1qyT-108" value="" style="endArrow=none;html=1;rounded=0;strokeColor=#000000;entryX=0;entryY=1;entryDx=0;entryDy=0;exitX=0.5;exitY=0;exitDx=0;exitDy=0;" parent="1" source="x3FrayPWxcoxJuQc1qyT-117" target="x3FrayPWxcoxJuQc1qyT-40" edge="1">
          <mxGeometry width="50" height="50" relative="1" as="geometry">
            <mxPoint x="346.25" y="445" as="sourcePoint" />
            <mxPoint x="396.25" y="395" as="targetPoint" />
          </mxGeometry>
        </mxCell>
        <mxCell id="x3FrayPWxcoxJuQc1qyT-109" value="" style="endArrow=none;html=1;rounded=0;strokeColor=#000000;entryX=0.5;entryY=1;entryDx=0;entryDy=0;exitX=1;exitY=0;exitDx=0;exitDy=0;" parent="1" source="x3FrayPWxcoxJuQc1qyT-115" target="x3FrayPWxcoxJuQc1qyT-117" edge="1">
          <mxGeometry width="50" height="50" relative="1" as="geometry">
            <mxPoint x="150" y="490" as="sourcePoint" />
            <mxPoint x="200" y="440" as="targetPoint" />
          </mxGeometry>
        </mxCell>
        <mxCell id="x3FrayPWxcoxJuQc1qyT-110" value="" style="endArrow=none;html=1;rounded=0;strokeColor=#000000;entryX=0.381;entryY=0.9;entryDx=0;entryDy=0;entryPerimeter=0;exitX=0.5;exitY=0;exitDx=0;exitDy=0;" parent="1" source="x3FrayPWxcoxJuQc1qyT-116" target="x3FrayPWxcoxJuQc1qyT-115" edge="1">
          <mxGeometry width="50" height="50" relative="1" as="geometry">
            <mxPoint x="58.75" y="630" as="sourcePoint" />
            <mxPoint x="108.75" y="580" as="targetPoint" />
          </mxGeometry>
        </mxCell>
        <mxCell id="x3FrayPWxcoxJuQc1qyT-111" value="&lt;font style=&quot;color: rgb(0, 0, 0);&quot;&gt;Cím&lt;/font&gt;" style="ellipse;whiteSpace=wrap;html=1;strokeColor=#000000;fillColor=#FFFFFF;" parent="1" vertex="1">
          <mxGeometry x="850" y="394" width="62.5" height="40" as="geometry" />
        </mxCell>
        <mxCell id="x3FrayPWxcoxJuQc1qyT-112" value="&lt;font style=&quot;color: rgb(0, 0, 0);&quot;&gt;Dolgozó neve&lt;/font&gt;" style="ellipse;whiteSpace=wrap;html=1;strokeColor=#000000;fillColor=#FFFFFF;" parent="1" vertex="1">
          <mxGeometry x="975" y="394" width="62.5" height="40" as="geometry" />
        </mxCell>
        <mxCell id="x3FrayPWxcoxJuQc1qyT-113" value="&lt;font style=&quot;color: rgb(0, 0, 0);&quot;&gt;Dátum&lt;/font&gt;" style="ellipse;whiteSpace=wrap;html=1;strokeColor=#000000;fillColor=#FFFFFF;" parent="1" vertex="1">
          <mxGeometry x="1060" y="434" width="62.5" height="40" as="geometry" />
        </mxCell>
        <mxCell id="x3FrayPWxcoxJuQc1qyT-114" value="&lt;font style=&quot;color: rgb(0, 0, 0);&quot;&gt;&lt;u&gt;MBO_ID&lt;/u&gt;&lt;/font&gt;" style="ellipse;whiteSpace=wrap;html=1;strokeColor=#000000;fillColor=#FFFFFF;" parent="1" vertex="1">
          <mxGeometry x="1060" y="520" width="62.5" height="40" as="geometry" />
        </mxCell>
        <mxCell id="x3FrayPWxcoxJuQc1qyT-115" value="&lt;font style=&quot;font-size: 16px; color: rgb(0, 0, 0);&quot;&gt;Szállítás&lt;/font&gt;" style="rounded=0;whiteSpace=wrap;html=1;strokeColor=#000000;fillColor=#FFFFFF;" parent="1" vertex="1">
          <mxGeometry x="100" y="515" width="105" height="50" as="geometry" />
        </mxCell>
        <mxCell id="x3FrayPWxcoxJuQc1qyT-116" value="&lt;font style=&quot;color: rgb(0, 0, 0);&quot;&gt;Cégnév&lt;/font&gt;" style="ellipse;whiteSpace=wrap;html=1;strokeColor=#000000;fillColor=#FFFFFF;" parent="1" vertex="1">
          <mxGeometry x="30" y="660" width="62.5" height="40" as="geometry" />
        </mxCell>
        <mxCell id="x3FrayPWxcoxJuQc1qyT-117" value="&lt;font style=&quot;color: rgb(0, 0, 0);&quot;&gt;Szállítás&lt;/font&gt;" style="rhombus;whiteSpace=wrap;html=1;strokeColor=#000000;fillColor=#FFFFFF;rotation=45;" parent="1" vertex="1">
          <mxGeometry x="280" y="394" width="60" height="80" as="geometry" />
        </mxCell>
        <mxCell id="x3FrayPWxcoxJuQc1qyT-118" value="&lt;font style=&quot;color: rgb(0, 0, 0);&quot;&gt;&lt;u&gt;Járatszám&lt;/u&gt;&lt;/font&gt;" style="ellipse;whiteSpace=wrap;html=1;strokeColor=#000000;fillColor=#FFFFFF;" parent="1" vertex="1">
          <mxGeometry x="110" y="660" width="62.5" height="40" as="geometry" />
        </mxCell>
        <mxCell id="x3FrayPWxcoxJuQc1qyT-119" value="" style="endArrow=none;html=1;rounded=0;strokeColor=#000000;entryX=0.5;entryY=1;entryDx=0;entryDy=0;exitX=0.5;exitY=0;exitDx=0;exitDy=0;" parent="1" source="x3FrayPWxcoxJuQc1qyT-118" target="x3FrayPWxcoxJuQc1qyT-115" edge="1">
          <mxGeometry width="50" height="50" relative="1" as="geometry">
            <mxPoint x="121.25" y="640" as="sourcePoint" />
            <mxPoint x="171.25" y="590" as="targetPoint" />
          </mxGeometry>
        </mxCell>
        <mxCell id="x3FrayPWxcoxJuQc1qyT-120" value="&lt;font style=&quot;color: rgb(0, 0, 0);&quot;&gt;Város&lt;/font&gt;" style="ellipse;whiteSpace=wrap;html=1;strokeColor=#000000;fillColor=#FFFFFF;" parent="1" vertex="1">
          <mxGeometry x="430" y="750" width="62.5" height="40" as="geometry" />
        </mxCell>
        <mxCell id="x3FrayPWxcoxJuQc1qyT-121" value="&lt;font style=&quot;color: rgb(0, 0, 0);&quot;&gt;Utca&lt;/font&gt;" style="ellipse;whiteSpace=wrap;html=1;strokeColor=#000000;fillColor=#FFFFFF;" parent="1" vertex="1">
          <mxGeometry x="505" y="750" width="62.5" height="40" as="geometry" />
        </mxCell>
        <mxCell id="x3FrayPWxcoxJuQc1qyT-122" value="&lt;font style=&quot;color: rgb(0, 0, 0);&quot;&gt;Házszám&lt;/font&gt;" style="ellipse;whiteSpace=wrap;html=1;strokeColor=#000000;fillColor=#FFFFFF;" parent="1" vertex="1">
          <mxGeometry x="587.5" y="750" width="62.5" height="40" as="geometry" />
        </mxCell>
        <mxCell id="x3FrayPWxcoxJuQc1qyT-123" value="" style="endArrow=none;html=1;rounded=0;strokeColor=#000000;exitX=0.5;exitY=1;exitDx=0;exitDy=0;entryX=0.5;entryY=0;entryDx=0;entryDy=0;" parent="1" source="x3FrayPWxcoxJuQc1qyT-96" target="x3FrayPWxcoxJuQc1qyT-120" edge="1">
          <mxGeometry width="50" height="50" relative="1" as="geometry">
            <mxPoint x="390" y="720" as="sourcePoint" />
            <mxPoint x="340" y="790" as="targetPoint" />
          </mxGeometry>
        </mxCell>
        <mxCell id="x3FrayPWxcoxJuQc1qyT-124" value="" style="endArrow=none;html=1;rounded=0;strokeColor=#000000;exitX=0.5;exitY=1;exitDx=0;exitDy=0;entryX=0.5;entryY=0;entryDx=0;entryDy=0;" parent="1" source="x3FrayPWxcoxJuQc1qyT-96" target="x3FrayPWxcoxJuQc1qyT-121" edge="1">
          <mxGeometry width="50" height="50" relative="1" as="geometry">
            <mxPoint x="760" y="720" as="sourcePoint" />
            <mxPoint x="710" y="790" as="targetPoint" />
          </mxGeometry>
        </mxCell>
        <mxCell id="x3FrayPWxcoxJuQc1qyT-125" value="" style="endArrow=none;html=1;rounded=0;strokeColor=#000000;exitX=0.5;exitY=1;exitDx=0;exitDy=0;entryX=0.5;entryY=0;entryDx=0;entryDy=0;" parent="1" source="x3FrayPWxcoxJuQc1qyT-96" target="x3FrayPWxcoxJuQc1qyT-122" edge="1">
          <mxGeometry width="50" height="50" relative="1" as="geometry">
            <mxPoint x="740" y="720" as="sourcePoint" />
            <mxPoint x="690" y="790" as="targetPoint" />
          </mxGeometry>
        </mxCell>
        <mxCell id="x3FrayPWxcoxJuQc1qyT-126" value="" style="endArrow=none;html=1;rounded=0;strokeColor=#000000;exitX=0.5;exitY=1;exitDx=0;exitDy=0;entryX=0.5;entryY=0;entryDx=0;entryDy=0;" parent="1" source="x3FrayPWxcoxJuQc1qyT-115" target="x3FrayPWxcoxJuQc1qyT-130" edge="1">
          <mxGeometry width="50" height="50" relative="1" as="geometry">
            <mxPoint x="320" y="600" as="sourcePoint" />
            <mxPoint x="270" y="670" as="targetPoint" />
          </mxGeometry>
        </mxCell>
        <mxCell id="x3FrayPWxcoxJuQc1qyT-127" value="" style="endArrow=none;html=1;rounded=0;strokeColor=#000000;exitX=0.5;exitY=1;exitDx=0;exitDy=0;entryX=0.5;entryY=0;entryDx=0;entryDy=0;" parent="1" source="x3FrayPWxcoxJuQc1qyT-130" target="x3FrayPWxcoxJuQc1qyT-131" edge="1">
          <mxGeometry width="50" height="50" relative="1" as="geometry">
            <mxPoint x="92.5" y="720" as="sourcePoint" />
            <mxPoint x="42.5" y="790" as="targetPoint" />
          </mxGeometry>
        </mxCell>
        <mxCell id="x3FrayPWxcoxJuQc1qyT-128" value="" style="endArrow=none;html=1;rounded=0;strokeColor=#000000;exitX=0.5;exitY=1;exitDx=0;exitDy=0;entryX=0.5;entryY=0;entryDx=0;entryDy=0;" parent="1" source="x3FrayPWxcoxJuQc1qyT-130" target="x3FrayPWxcoxJuQc1qyT-132" edge="1">
          <mxGeometry width="50" height="50" relative="1" as="geometry">
            <mxPoint x="255" y="700" as="sourcePoint" />
            <mxPoint x="205" y="770" as="targetPoint" />
          </mxGeometry>
        </mxCell>
        <mxCell id="x3FrayPWxcoxJuQc1qyT-130" value="&lt;font style=&quot;color: rgb(0, 0, 0);&quot;&gt;Autó&lt;/font&gt;" style="ellipse;whiteSpace=wrap;html=1;strokeColor=#000000;fillColor=#FFFFFF;" parent="1" vertex="1">
          <mxGeometry x="190" y="660" width="60" height="40" as="geometry" />
        </mxCell>
        <mxCell id="x3FrayPWxcoxJuQc1qyT-131" value="&lt;font style=&quot;color: rgb(0, 0, 0);&quot;&gt;Tipus&lt;/font&gt;" style="ellipse;whiteSpace=wrap;html=1;strokeColor=#000000;fillColor=#FFFFFF;" parent="1" vertex="1">
          <mxGeometry x="140" y="740" width="60" height="40" as="geometry" />
        </mxCell>
        <mxCell id="x3FrayPWxcoxJuQc1qyT-132" value="&lt;font style=&quot;color: rgb(0, 0, 0);&quot;&gt;Rendszám&lt;/font&gt;" style="ellipse;whiteSpace=wrap;html=1;strokeColor=#000000;fillColor=#FFFFFF;" parent="1" vertex="1">
          <mxGeometry x="247.5" y="740" width="60" height="40" as="geometry" />
        </mxCell>
        <mxCell id="UOhEeOM4flEoUmXimytb-1" value="&lt;font style=&quot;font-size: 16px; color: rgb(0, 0, 0);&quot;&gt;1&lt;/font&gt;" style="text;html=1;align=center;verticalAlign=middle;whiteSpace=wrap;rounded=0;" parent="1" vertex="1">
          <mxGeometry x="360" y="240" width="20" height="20" as="geometry" />
        </mxCell>
        <mxCell id="UOhEeOM4flEoUmXimytb-2" value="&lt;font style=&quot;font-size: 16px; color: rgb(0, 0, 0);&quot;&gt;N&lt;/font&gt;" style="text;html=1;align=center;verticalAlign=middle;whiteSpace=wrap;rounded=0;" parent="1" vertex="1">
          <mxGeometry x="280" y="176" width="20" height="20" as="geometry" />
        </mxCell>
        <mxCell id="UOhEeOM4flEoUmXimytb-3" value="&lt;font style=&quot;font-size: 16px; color: rgb(0, 0, 0);&quot;&gt;1&lt;/font&gt;" style="text;html=1;align=center;verticalAlign=middle;whiteSpace=wrap;rounded=0;" parent="1" vertex="1">
          <mxGeometry x="690" y="240" width="20" height="20" as="geometry" />
        </mxCell>
        <mxCell id="UOhEeOM4flEoUmXimytb-4" value="&lt;font style=&quot;font-size: 16px; color: rgb(0, 0, 0);&quot;&gt;N&lt;/font&gt;" style="text;html=1;align=center;verticalAlign=middle;whiteSpace=wrap;rounded=0;" parent="1" vertex="1">
          <mxGeometry x="770" y="170" width="20" height="20" as="geometry" />
        </mxCell>
        <mxCell id="UOhEeOM4flEoUmXimytb-5" value="&lt;font style=&quot;font-size: 16px; color: rgb(0, 0, 0);&quot;&gt;N&lt;/font&gt;" style="text;html=1;align=center;verticalAlign=middle;whiteSpace=wrap;rounded=0;" parent="1" vertex="1">
          <mxGeometry x="540" y="520" width="20" height="20" as="geometry" />
        </mxCell>
        <mxCell id="UOhEeOM4flEoUmXimytb-6" value="&lt;font style=&quot;font-size: 16px; color: rgb(0, 0, 0);&quot;&gt;M&lt;/font&gt;" style="text;html=1;align=center;verticalAlign=middle;whiteSpace=wrap;rounded=0;" parent="1" vertex="1">
          <mxGeometry x="540" y="420" width="20" height="20" as="geometry" />
        </mxCell>
        <mxCell id="UOhEeOM4flEoUmXimytb-7" value="&lt;font style=&quot;font-size: 16px; color: rgb(0, 0, 0);&quot;&gt;1&lt;/font&gt;" style="text;html=1;align=center;verticalAlign=middle;whiteSpace=wrap;rounded=0;" parent="1" vertex="1">
          <mxGeometry x="670" y="360" width="20" height="20" as="geometry" />
        </mxCell>
        <mxCell id="UOhEeOM4flEoUmXimytb-8" value="&lt;font style=&quot;font-size: 16px; color: rgb(0, 0, 0);&quot;&gt;1&lt;/font&gt;" style="text;html=1;align=center;verticalAlign=middle;whiteSpace=wrap;rounded=0;" parent="1" vertex="1">
          <mxGeometry x="267.5" y="470" width="20" height="20" as="geometry" />
        </mxCell>
        <mxCell id="UOhEeOM4flEoUmXimytb-9" value="&lt;font style=&quot;font-size: 16px; color: rgb(0, 0, 0);&quot;&gt;N&lt;/font&gt;" style="text;html=1;align=center;verticalAlign=middle;whiteSpace=wrap;rounded=0;" parent="1" vertex="1">
          <mxGeometry x="740" y="424" width="20" height="20" as="geometry" />
        </mxCell>
        <mxCell id="UOhEeOM4flEoUmXimytb-12" value="&lt;font style=&quot;font-size: 16px; color: rgb(0, 0, 0);&quot;&gt;1&lt;/font&gt;" style="text;html=1;align=center;verticalAlign=middle;whiteSpace=wrap;rounded=0;" parent="1" vertex="1">
          <mxGeometry x="350" y="410" width="20" height="20" as="geometry" />
        </mxCell>
      </root>
    </mxGraphModel>
  </diagram>
</mxfile>
